<?xml version="1.0" encoding="utf-8"?>
<!-- Generator: Adobe Illustrator 21.0.0, SVG Export Plug-In . SVG Version: 6.00 Build 0)  -->
<svg version="1.1" id="Слой_1" xmlns="http://www.w3.org/2000/svg" xmlns:xlink="http://www.w3.org/1999/xlink" x="0px" y="0px"
	 viewBox="0 0 25 25" style="enable-background:new 0 0 25 25;" xml:space="preserve">
<style type="text/css">
	.st0{fill:#A3A3A3;}
</style>
<g id="Megaphone_1">
	<g>
		<path class="st0" d="M22.7,7.4V1.7C22.7,0.8,22,0,21,0c-0.9,0-1.7,0.8-1.7,1.7v0.4L2.8,7C2.7,6.9,2.5,6.8,2.3,6.8H1.1
			C0.5,6.8,0,7.3,0,8v5.7c0,0.6,0.5,1.1,1.1,1.1h1.1c0.2,0,0.4-0.1,0.6-0.2l0.7,0.2l2.2,9.7l0,0C5.8,24.8,6,25,6.3,25h4.5
			c0.3,0,0.6-0.3,0.6-0.6c0,0,0-0.1,0-0.1l0,0l-1.8-7.7l9.8,2.9v0.4c0,0.9,0.8,1.7,1.7,1.7c0.9,0,1.7-0.8,1.7-1.7v-5.7
			c1.3,0,2.3-1,2.3-2.3V9.7C25,8.4,24,7.4,22.7,7.4z M2.3,13.6H1.1V8h1.1V13.6z M10.1,23.9H6.7l-0.3-1.1h3.4L10.1,23.9z M9.5,21.6
			H6.2l-1.4-6.4l3.5,1L9.5,21.6z M19.3,18.3L3.4,13.6V8l15.9-4.7V18.3z M21.6,19.9c0,0.3-0.3,0.6-0.6,0.6c-0.3,0-0.6-0.3-0.6-0.6
			V1.7c0-0.3,0.3-0.6,0.6-0.6c0.3,0,0.6,0.3,0.6,0.6V19.9z M23.9,11.9c0,0.6-0.5,1.1-1.1,1.1V8.5c0.6,0,1.1,0.5,1.1,1.1V11.9z"/>
	</g>
</g>
</svg>
