<?xml version="1.0" encoding="utf-8"?>
<!-- Generator: Adobe Illustrator 21.0.0, SVG Export Plug-In . SVG Version: 6.00 Build 0)  -->
<svg version="1.1" id="Слой_1" xmlns="http://www.w3.org/2000/svg" xmlns:xlink="http://www.w3.org/1999/xlink" x="0px" y="0px"
	 viewBox="0 0 25 25" style="enable-background:new 0 0 25 25;" xml:space="preserve">
<style type="text/css">
	.st0{fill:#A3A3A3;}
</style>
<g>
	<g>
		<path class="st0" d="M8.5,11.4c2,0,3.6-2.2,3.6-4.9s-1.6-4.9-3.6-4.9S4.9,3.9,4.9,6.5S6.5,11.4,8.5,11.4z M8.5,2.9
			c1.3,0,2.4,1.7,2.4,3.7s-1.1,3.7-2.4,3.7S6.1,8.5,6.1,6.5S7.2,2.9,8.5,2.9z"/>
		<path class="st0" d="M19.2,16.1c-0.1-0.1-0.1-0.2-0.2-0.3c-0.8-1.7-3-3.8-6.6-3.8l-0.1,0c-3.5,0-5.7,1.9-6.6,3.7
			c0,0.1-0.1,0.1-0.2,0.2c-0.1,0.1-0.2,0.2-0.2,0.3c-0.7,1.2-1.1,2.5-1.1,3.7c0.1,1.3,0.6,2.3,1.5,2.9c0.4,0.2,0.8,0.4,1.2,0.4
			c0.9,0,1.7-0.5,2.6-1c0.6-0.4,1.2-0.7,1.9-1c0.1,0,0.4-0.1,0.9-0.1c0.6,0,1,0.1,1.1,0.1c0.7,0.3,1.2,0.7,1.8,1
			c0.8,0.6,1.7,1.1,2.5,1.1c0.4,0,0.7-0.1,1.1-0.3c1.9-1.1,2.2-4,0.8-6.5C19.4,16.4,19.3,16.2,19.2,16.1z M18.1,22
			c-0.2,0.1-0.3,0.1-0.5,0.1c-0.5,0-1.1-0.4-1.9-0.9c-0.6-0.4-1.2-0.8-2-1.1c-0.4-0.2-1.2-0.2-1.6-0.2c-0.6,0-1.1,0.1-1.3,0.1
			c-0.8,0.3-1.4,0.7-2,1.1c-0.8,0.5-1.4,0.9-1.9,0.9c-0.2,0-0.4-0.1-0.5-0.2c-0.6-0.4-0.9-1.1-1-2c0-1,0.3-2,0.9-3
			c0-0.1,0.1-0.1,0.2-0.2c0.1-0.1,0.2-0.3,0.3-0.5c0.7-1.5,2.6-3.1,5.6-3.1l0.1,0c3,0,4.9,1.7,5.6,3.1c0.1,0.2,0.2,0.3,0.3,0.5
			c0.1,0.1,0.1,0.2,0.2,0.2C19.6,19,19.4,21.3,18.1,22z"/>
		<path class="st0" d="M16.2,11.4c2,0,3.6-2.2,3.6-4.9s-1.6-4.9-3.6-4.9c-2,0-3.6,2.2-3.6,4.9S14.2,11.4,16.2,11.4z M16.2,2.9
			c1.3,0,2.4,1.7,2.4,3.7s-1.1,3.7-2.4,3.7c-1.3,0-2.4-1.7-2.4-3.7S14.9,2.9,16.2,2.9z"/>
		<path class="st0" d="M22.1,8.9c-1.6,0-2.9,1.7-2.9,3.8c0,2.1,1.3,3.8,2.9,3.8s2.9-1.7,2.9-3.8C25,10.6,23.7,8.9,22.1,8.9z
			 M22.1,15.3c-0.9,0-1.7-1.2-1.7-2.6c0-1.4,0.8-2.6,1.7-2.6s1.7,1.2,1.7,2.6C23.8,14.1,23.1,15.3,22.1,15.3z"/>
		<path class="st0" d="M5.7,12.7c0-2.1-1.3-3.8-2.9-3.8S0,10.6,0,12.7c0,2.1,1.3,3.8,2.9,3.8S5.7,14.8,5.7,12.7z M2.9,15.3
			c-0.9,0-1.7-1.2-1.7-2.6c0-1.4,0.8-2.6,1.7-2.6s1.7,1.2,1.7,2.6C4.5,14.1,3.8,15.3,2.9,15.3z"/>
	</g>
</g>
</svg>
