<?xml version="1.0" encoding="utf-8"?>
<!-- Generator: Adobe Illustrator 21.0.0, SVG Export Plug-In . SVG Version: 6.00 Build 0)  -->
<svg version="1.1" id="Слой_1" xmlns="http://www.w3.org/2000/svg" xmlns:xlink="http://www.w3.org/1999/xlink" x="0px" y="0px"
	 viewBox="0 0 25 25" style="enable-background:new 0 0 25 25;" xml:space="preserve">
<style type="text/css">
	.st0{fill:#A3A3A3;}
</style>
<g id="Chat_Bubbles_x40_2x.png">
	<g>
		<path class="st0" d="M9.1,6.8c-5,0-9.1,3.4-9.1,7.7c0,2.2,1.1,4.1,2.8,5.5l-1.1,3.8l5.1-2c0.7,0.2,1.5,0.3,2.3,0.3
			c5,0,9.1-3.4,9.1-7.7C18.2,10.3,14.1,6.8,9.1,6.8z M9.1,21c-0.7,0-1.4-0.1-2-0.2c-0.1,0-0.2,0-0.2,0c-0.1,0-0.3,0-0.4,0.1l-3,1.1
			l0.5-1.7c0.1-0.4,0-0.9-0.4-1.2c-1.5-1.2-2.4-2.9-2.4-4.6c0-3.6,3.6-6.5,8-6.5c4.4,0,8,2.9,8,6.5C17,18.1,13.5,21,9.1,21z M25,8.8
			c0-4.2-4.1-7.7-9.1-7.7c-3.7,0-7,1.9-8.4,4.7C8,5.7,8.5,5.7,8.9,5.7c1.4-2,4-3.4,7-3.4c4.4,0,8,2.9,8,6.5c0,1.8-0.8,3.4-2.4,4.6
			c-0.4,0.3-0.5,0.8-0.4,1.2l0.5,1.7l-2.3-0.9c0,0.4-0.1,0.8-0.2,1.1l4.3,1.7l-1.1-3.8C23.9,12.9,25,11,25,8.8z"/>
	</g>
</g>
</svg>
