<?xml version="1.0" encoding="utf-8"?>
<!-- Generator: Adobe Illustrator 21.0.0, SVG Export Plug-In . SVG Version: 6.00 Build 0)  -->
<svg version="1.1" id="Слой_1" xmlns="http://www.w3.org/2000/svg" xmlns:xlink="http://www.w3.org/1999/xlink" x="0px" y="0px"
	 viewBox="0 0 25 25" style="enable-background:new 0 0 25 25;" xml:space="preserve">
<style type="text/css">
	.st0{fill:url(#XMLID_2_);}
	.st1{fill:url(#XMLID_3_);}
	.st2{fill:url(#XMLID_4_);}
</style>
<g id="XMLID_13_">
	
		<linearGradient id="XMLID_2_" gradientUnits="userSpaceOnUse" x1="12.4997" y1="-504.0572" x2="12.4997" y2="-528.7902" gradientTransform="matrix(1 0 0 1 0 529)">
		<stop  offset="0" style="stop-color:#E09B3D"/>
		<stop  offset="0.3" style="stop-color:#C74C4D"/>
		<stop  offset="0.6" style="stop-color:#C21975"/>
		<stop  offset="1" style="stop-color:#7024C4"/>
	</linearGradient>
	<path id="XMLID_17_" class="st0" d="M17.6,0H7.4C3.3,0,0,3.4,0,7.5v10.1C0,21.7,3.3,25,7.4,25h10.1c4.1,0,7.4-3.3,7.4-7.4V7.5
		C25,3.4,21.7,0,17.6,0z M22.5,17.6c0,2.7-2.2,4.9-4.9,4.9H7.4c-2.7,0-4.9-2.2-4.9-4.9V7.5c0-2.7,2.2-4.9,4.9-4.9h10.1
		c2.7,0,4.9,2.2,4.9,4.9L22.5,17.6L22.5,17.6z"/>
	
		<linearGradient id="XMLID_3_" gradientUnits="userSpaceOnUse" x1="12.4997" y1="-504.0572" x2="12.4997" y2="-528.7902" gradientTransform="matrix(1 0 0 1 0 529)">
		<stop  offset="0" style="stop-color:#E09B3D"/>
		<stop  offset="0.3" style="stop-color:#C74C4D"/>
		<stop  offset="0.6" style="stop-color:#C21975"/>
		<stop  offset="1" style="stop-color:#7024C4"/>
	</linearGradient>
	<path id="XMLID_81_" class="st1" d="M12.5,6C8.9,6,6,9,6,12.5S8.9,19,12.5,19s6.5-2.9,6.5-6.5S16.1,6,12.5,6z M12.5,16.5
		c-2.2,0-4-1.8-4-4s1.8-4,4-4c2.2,0,4,1.8,4,4C16.5,14.7,14.7,16.5,12.5,16.5z"/>
	
		<linearGradient id="XMLID_4_" gradientUnits="userSpaceOnUse" x1="18.9779" y1="-504.0572" x2="18.9779" y2="-528.7902" gradientTransform="matrix(1 0 0 1 0 529)">
		<stop  offset="0" style="stop-color:#E09B3D"/>
		<stop  offset="0.3" style="stop-color:#C74C4D"/>
		<stop  offset="0.6" style="stop-color:#C21975"/>
		<stop  offset="1" style="stop-color:#7024C4"/>
	</linearGradient>
	<circle id="XMLID_83_" class="st2" cx="19" cy="6.1" r="1.5"/>
</g>
</svg>
