<?xml version="1.0" encoding="utf-8"?>
<!-- Generator: Adobe Illustrator 21.0.0, SVG Export Plug-In . SVG Version: 6.00 Build 0)  -->
<svg version="1.1" id="Слой_1" xmlns="http://www.w3.org/2000/svg" xmlns:xlink="http://www.w3.org/1999/xlink" x="0px" y="0px"
	 viewBox="0 0 25 25" style="enable-background:new 0 0 25 25;" xml:space="preserve">
<style type="text/css">
	.st0{fill:#E27E35;}
</style>
<g>
	<g>
		<path class="st0" d="M11.3,17.6c-1.9-0.2-3.7-0.7-5.2-1.8c-0.2-0.1-0.4-0.3-0.5-0.4c-0.7-0.6-0.7-1.3-0.2-2.1
			c0.4-0.6,1.2-0.8,2-0.4c0.1,0.1,0.3,0.2,0.4,0.3c2.8,1.9,6.6,2,9.4,0.1c0.3-0.2,0.6-0.4,0.9-0.5c0.7-0.2,1.3,0.1,1.6,0.7
			c0.4,0.7,0.4,1.3-0.1,1.8c-0.8,0.8-1.7,1.4-2.7,1.8c-1,0.4-2,0.6-3.1,0.7c0.2,0.2,0.2,0.3,0.3,0.4c1.4,1.4,2.9,2.9,4.3,4.3
			c0.5,0.5,0.6,1.1,0.3,1.7c-0.3,0.6-1,1-1.6,1c-0.4,0-0.7-0.2-1-0.5c-1.1-1.1-2.2-2.2-3.3-3.3c-0.3-0.3-0.5-0.3-0.7,0
			c-1.1,1.1-2.2,2.2-3.3,3.3c-0.5,0.5-1.1,0.6-1.7,0.3c-0.6-0.3-1-0.9-1-1.6c0-0.4,0.2-0.8,0.5-1.1c1.4-1.4,2.8-2.8,4.3-4.3
			C11.1,17.9,11.1,17.8,11.3,17.6z"/>
		<path class="st0" d="M12.5,12.7c-3.5,0-6.3-2.9-6.3-6.3C6.2,2.8,9,0,12.5,0c3.5,0,6.3,2.9,6.3,6.4C18.8,9.9,15.9,12.7,12.5,12.7z
			 M15.6,6.3c0-1.7-1.4-3.1-3.1-3.1c-1.7,0-3.1,1.4-3.1,3.1c0,1.7,1.4,3.1,3.1,3.1C14.2,9.4,15.6,8,15.6,6.3z"/>
	</g>
</g>
</svg>
