<?xml version="1.0" encoding="utf-8"?>
<!-- Generator: Adobe Illustrator 21.0.0, SVG Export Plug-In . SVG Version: 6.00 Build 0)  -->
<svg version="1.1" id="Слой_1" xmlns="http://www.w3.org/2000/svg" xmlns:xlink="http://www.w3.org/1999/xlink" x="0px" y="0px"
	 viewBox="0 0 25 25" style="enable-background:new 0 0 25 25;" xml:space="preserve">
<style type="text/css">
	.st0{fill:#8E8E8E;}
</style>
<g>
	<path class="st0" d="M6.4,0c1.2,0,2.1,0.4,2.7,1.1C9.7,1.8,10,2.8,10,4v7.8c0,1.2-0.3,2.2-0.9,2.9c-0.6,0.7-1.5,1.1-2.7,1.1
		s-2.1-0.4-2.7-1.1C3.2,14,2.9,13,2.9,11.8V4c0-1.2,0.3-2.2,0.9-2.9C4.3,0.4,5.2,0,6.4,0z M6.4,1.6c-0.6,0-1.1,0.2-1.4,0.6
		c-0.3,0.4-0.4,1-0.4,1.6V12c0,0.7,0.1,1.2,0.4,1.6c0.3,0.4,0.7,0.6,1.4,0.6c0.6,0,1.1-0.2,1.3-0.6C8,13.2,8.2,12.6,8.2,12V3.9
		c0-0.7-0.1-1.2-0.4-1.6C7.5,1.8,7,1.6,6.4,1.6z M18.1,0.1L8.4,24.9H6.7l9.8-24.8H18.1z M18.6,9.3c1.2,0,2.1,0.4,2.7,1.1
		c0.6,0.7,0.8,1.7,0.8,2.9V21c0,1.2-0.3,2.2-0.8,2.9c-0.6,0.7-1.5,1.1-2.7,1.1c-1.2,0-2.1-0.4-2.7-1.1C15.3,23.2,15,22.2,15,21v-7.8
		c0-1.2,0.3-2.2,0.9-2.9C16.5,9.6,17.4,9.3,18.6,9.3z M18.6,10.9c-0.6,0-1.1,0.2-1.3,0.6c-0.3,0.4-0.4,0.9-0.4,1.6v8
		c0,0.7,0.1,1.2,0.4,1.6c0.3,0.4,0.7,0.6,1.3,0.6c0.6,0,1.1-0.2,1.3-0.6c0.3-0.4,0.4-1,0.4-1.6v-8c0-0.7-0.1-1.2-0.4-1.6
		C19.6,11.1,19.2,10.9,18.6,10.9z"/>
</g>
</svg>
