<?xml version="1.0" encoding="utf-8"?>
<!-- Generator: Adobe Illustrator 21.0.0, SVG Export Plug-In . SVG Version: 6.00 Build 0)  -->
<svg version="1.1" id="Слой_1" xmlns="http://www.w3.org/2000/svg" xmlns:xlink="http://www.w3.org/1999/xlink" x="0px" y="0px"
	 viewBox="0 0 25 25" style="enable-background:new 0 0 25 25;" xml:space="preserve">
<style type="text/css">
	.st0{fill:#8E8E8E;}
</style>
<g>
	<g>
		<path class="st0" d="M25,14L25,14l-4-10.4c0.4-0.2,0.7-0.6,0.7-1.1c0-0.2-0.2-0.4-0.4-0.4c-0.2,0-0.4,0.2-0.4,0.4
			c0,0.2-0.2,0.4-0.4,0.4c-0.2,0-0.3-0.1-0.4-0.2c-0.2-0.4-0.5-0.6-0.9-0.6h-5c-0.2-0.7-0.8-1.3-1.6-1.3c-0.8,0-1.4,0.5-1.6,1.3h-5
			C5.5,2.1,5.1,2.3,5,2.7C4.9,2.8,4.7,2.9,4.6,2.9c-0.2,0-0.4-0.2-0.4-0.4c0-0.2-0.2-0.4-0.4-0.4S3.3,2.3,3.3,2.5
			C3.3,3,3.6,3.4,4,3.6L0,14l0,0c0,0,0,0.1,0,0.1c0,2.5,2,4.6,4.6,4.6s4.6-2,4.6-4.6c0,0,0-0.1,0-0.1l0,0l-4-10.4
			C5.3,3.5,5.5,3.3,5.7,3c0,0,0.1-0.2,0.2-0.2h5c0.1,0.3,0.2,0.5,0.4,0.7v18.1H7.9c-0.7,0-1.2,0.5-1.2,1.2s0.5,1.2,1.2,1.2h9.2
			c0.7,0,1.2-0.5,1.2-1.2c0-0.7-0.5-1.2-1.2-1.2h-3.4V3.6c0.2-0.2,0.3-0.4,0.4-0.7h5c0.1,0,0.2,0.1,0.2,0.2c0.1,0.2,0.3,0.4,0.6,0.5
			l-4,10.4l0,0c0,0,0,0.1,0,0.1c0,2.5,2,4.6,4.6,4.6s4.6-2,4.6-4.6C25,14.1,25,14.1,25,14z M4.6,17.9c-2,0-3.6-1.5-3.8-3.4h7.5
			C8.1,16.5,6.5,17.9,4.6,17.9z M8.2,13.8H1l3.6-9.4L8.2,13.8z M12.5,1.6c0.5,0,0.9,0.4,0.9,0.9S13,3.3,12.5,3.3
			c-0.5,0-0.9-0.4-0.9-0.9S12,1.6,12.5,1.6z M12.9,4.1v17.6H12V4.1c0.1,0,0.3,0.1,0.4,0.1C12.6,4.1,12.8,4.1,12.9,4.1z M17.1,22.5
			c0.2,0,0.4,0.2,0.4,0.4s-0.2,0.4-0.4,0.4H7.9c-0.2,0-0.4-0.2-0.4-0.4s0.2-0.4,0.4-0.4H17.1z M20.4,4.4l3.6,9.4h-7.2L20.4,4.4z
			 M20.4,17.9c-2,0-3.6-1.5-3.8-3.4h7.5C24,16.5,22.4,17.9,20.4,17.9z"/>
	</g>
</g>
</svg>
