<?xml version="1.0" encoding="utf-8"?>
<!-- Generator: Adobe Illustrator 21.0.0, SVG Export Plug-In . SVG Version: 6.00 Build 0)  -->
<svg version="1.1" id="Слой_1" xmlns="http://www.w3.org/2000/svg" xmlns:xlink="http://www.w3.org/1999/xlink" x="0px" y="0px"
	 viewBox="0 0 25 25" style="enable-background:new 0 0 25 25;" xml:space="preserve">
<style type="text/css">
	.st0{fill:#FF1427;}
	.st1{fill:#FFFFFF;}
</style>
<path class="st0" d="M24.7,7.1c0,0-0.3-1.9-1-2.7c-0.9-1.1-2-1.1-2.5-1.1C17.8,3.1,12.5,3,12.5,3l0,0c0,0-5.3,0-8.8,0.3
	c-0.5,0-1.6,0.1-2.5,1.1c-0.8,0.8-1,2.7-1,2.7S0,9.3,0,11.5v2c0,2.2,0.3,4.4,0.3,4.4s0.3,1.9,1,2.7c0.9,1.1,2.2,1,2.8,1.2
	c2,0.2,8.5,0.3,8.5,0.3s5.3,0,8.8-0.3c0.5,0,1.6-0.1,2.5-1.1c0.7-0.8,1-2.7,1-2.7s0.3-2.2,0.3-4.4v-2C25,9.3,24.7,7.1,24.7,7.1"/>
<polygon class="st1" points="9.5,8.1 9.5,17.5 17.7,12.9 "/>
</svg>
